<?xml version="1.0" standalone="no"?>
<!DOCTYPE svg PUBLIC "-//W3C//DTD SVG 20010904//EN"
 "http://www.w3.org/TR/2001/REC-SVG-20010904/DTD/svg10.dtd">
<svg version="1.0" xmlns="http://www.w3.org/2000/svg"
 width="500.000000pt" height="500.000000pt" viewBox="0 0 500.000000 500.000000"
 preserveAspectRatio="xMidYMid meet">

<g transform="translate(0.000000,500.000000) scale(0.100000,-0.100000)"
fill="#000000" stroke="none">
<path d="M2320 4149 c-566 -64 -1063 -415 -1310 -924 -223 -460 -223 -989 0
-1450 158 -327 429 -598 760 -761 636 -314 1396 -187 1900 316 503 503 630
1269 317 1900 -312 628 -981 997 -1667 919z m509 -49 c566 -121 1031 -532
1214 -1070 68 -200 82 -288 81 -530 0 -185 -3 -229 -23 -320 -70 -324 -209
-586 -435 -818 -231 -238 -511 -391 -846 -463 -91 -20 -135 -23 -320 -23 -187
-1 -229 2 -320 22 -655 142 -1135 621 -1282 1279 -19 85 -22 128 -22 323 0
253 12 337 80 531 204 588 727 1012 1344 1092 19 3 123 4 230 2 158 -2 215 -6
299 -25z"/>
<path d="M2429 3948 c0 -2 -3 -15 -5 -31 -3 -15 -8 -37 -13 -49 -8 -22 -9 -21
-25 11 -10 18 -15 39 -12 47 4 10 -2 14 -19 14 l-25 0 30 -60 c17 -33 34 -60
39 -60 5 0 14 21 21 48 7 26 17 51 21 57 12 12 11 25 -1 25 -5 0 -10 -1 -11
-2z"/>
<path d="M2615 3903 c0 -21 -3 -50 -7 -64 -8 -26 -6 -27 37 -31 40 -3 45 -1
44 17 0 11 -3 14 -6 8 -2 -7 -16 -13 -29 -13 -25 0 -30 15 -14 40 8 12 12 13
19 2 6 -11 9 -9 13 6 4 16 1 18 -15 14 -18 -5 -19 -2 -14 26 5 26 3 32 -11 32
-13 0 -17 -9 -17 -37z"/>
<path d="M2670 3926 c0 -2 7 -9 15 -16 12 -10 15 -10 15 4 0 9 -7 16 -15 16
-8 0 -15 -2 -15 -4z"/>
<path d="M2115 3895 c-22 -8 -35 -14 -28 -14 6 -1 17 -26 24 -56 12 -55 13
-56 43 -49 41 8 46 12 46 32 -1 16 -1 16 -11 0 -11 -21 -49 -24 -50 -5 -1 13
-4 30 -15 66 -6 22 -5 23 19 19 19 -4 27 -1 27 8 0 16 -2 16 -55 -1z"/>
<path d="M2863 3854 c-1 -19 -9 -46 -17 -59 -15 -23 -14 -24 29 -38 39 -14 44
-14 49 0 9 23 7 26 -9 13 -8 -7 -22 -9 -31 -6 -18 7 -12 55 12 93 11 18 11 22
-2 27 -26 10 -29 7 -31 -30z"/>
<path d="M2150 3848 c0 -9 5 -20 10 -23 13 -8 13 5 0 25 -8 13 -10 13 -10 -2z"/>
<path d="M1857 3793 c-21 -9 -34 -19 -29 -22 16 -10 53 -91 46 -102 -3 -6 12
-1 34 10 59 30 68 66 27 106 -28 29 -28 29 -78 8z m73 -35 c15 -29 8 -57 -18
-66 -11 -3 -52 66 -52 88 0 23 54 5 70 -22z"/>
<path d="M3092 3763 c-32 -28 -38 -67 -13 -92 34 -34 77 -27 100 16 16 31 14
50 -9 73 -25 25 -51 25 -78 3z m72 -16 c8 -13 7 -24 -4 -44 -23 -40 -46 -51
-66 -31 -15 14 -15 21 -4 48 20 49 53 61 74 27z"/>
<path d="M3343 3633 c3 -5 -11 -28 -32 -51 -30 -32 -36 -44 -26 -52 9 -8 14
-6 18 5 5 11 16 13 50 9 36 -5 45 -3 51 11 8 21 -15 60 -45 76 -12 6 -19 7
-16 2z m47 -47 c0 -20 -27 -39 -45 -32 -13 4 -14 10 -5 26 12 23 50 27 50 6z"/>
<path d="M2310 3619 c-328 -55 -630 -269 -805 -571 -47 -82 -11 -52 43 35 85
138 203 260 342 352 89 59 149 87 258 124 122 41 212 55 352 55 231 0 426 -58
610 -179 137 -91 260 -218 343 -352 53 -87 89 -117 42 -35 -177 306 -478 518
-815 571 -77 13 -293 12 -370 0z"/>
<path d="M1491 3521 c-20 -20 -19 -20 22 -63 l42 -44 30 28 c24 23 28 31 19
46 -7 9 -21 17 -33 16 -14 0 -21 5 -21 18 0 24 -34 24 -59 -1z m49 -22 c0 -10
-4 -19 -9 -19 -14 0 -33 28 -27 39 10 16 36 1 36 -20z m47 -25 c3 -8 1 -20 -6
-27 -14 -14 -47 15 -37 32 10 16 36 13 43 -5z"/>
<path d="M3530 3450 c0 -12 -37 -46 -73 -66 -19 -11 -18 -12 10 -44 21 -23 34
-31 44 -25 11 7 8 11 -11 15 -38 9 -34 32 11 64 33 23 43 26 50 15 5 -8 7 -19
4 -26 -2 -7 2 -10 11 -6 18 7 19 4 -16 48 -16 21 -30 32 -30 25z"/>
<path d="M3510 3368 c0 -17 2 -18 15 -8 8 7 15 14 15 15 0 2 -7 5 -15 9 -10 4
-15 -1 -15 -16z"/>
<path d="M1331 3318 l-20 -33 22 -8 c12 -4 36 -19 53 -32 l32 -25 21 34 c25
39 25 42 8 49 -10 4 -13 -2 -9 -18 2 -12 -1 -26 -7 -29 -11 -7 -91 41 -91 54
0 13 27 30 35 22 5 -4 5 -1 1 6 -11 19 -23 14 -45 -20z"/>
<path d="M1380 3300 c0 -13 5 -18 15 -14 12 5 13 10 4 20 -15 19 -19 18 -19
-6z"/>
<path d="M3674 3232 c6 -11 -82 -54 -95 -47 -14 9 -11 -9 6 -31 8 -10 15 -14
15 -8 0 12 71 54 90 54 6 0 10 -9 10 -19 0 -23 -28 -35 -45 -21 -17 14 -49
-35 -40 -58 6 -14 9 -12 17 11 8 22 15 27 30 24 30 -8 48 3 48 29 0 28 -20 74
-32 74 -5 0 -7 -4 -4 -8z"/>
<path d="M1225 3122 c-7 -19 -6 -24 4 -18 4 3 23 -6 41 -19 l34 -25 -55 0 -54
-1 40 -34 c41 -36 35 -42 -22 -26 -29 9 -43 1 -43 -25 0 -2 29 -4 65 -4 36 0
65 3 65 8 0 4 -14 19 -32 34 l-33 27 48 1 c26 0 47 5 47 10 0 6 -4 10 -8 10
-5 0 -27 17 -50 38 -30 28 -43 34 -47 24z"/>
<path d="M1763 2800 c-93 -19 -174 -85 -215 -175 -30 -67 -31 -180 -2 -245 53
-115 154 -181 278 -181 74 0 125 17 184 61 l50 38 27 -28 c89 -93 272 -96 387
-6 l32 24 31 -24 c113 -86 272 -88 377 -3 l37 29 48 -33 c60 -43 107 -58 177
-58 101 0 182 40 243 119 149 196 9 482 -237 486 -79 1 -126 -15 -187 -61
l-45 -35 -27 26 c-76 73 -222 93 -322 43 -31 -15 -64 -36 -73 -46 -18 -19 -19
-19 -64 14 -48 34 -135 65 -182 65 -47 0 -127 -29 -179 -65 l-51 -36 -38 30
c-69 56 -163 79 -249 61z m183 -38 c22 -11 55 -34 73 -51 l33 -31 45 39 c106
94 260 94 365 2 l42 -38 29 29 c46 45 105 70 178 76 57 4 75 1 125 -22 33 -15
69 -37 81 -48 l22 -21 -24 -42 c-53 -90 -53 -209 0 -310 l25 -45 -42 -30 c-45
-33 -123 -60 -173 -60 -57 0 -131 29 -176 69 l-44 39 -44 -39 c-106 -94 -271
-88 -378 14 l-32 30 -33 -33 c-52 -51 -112 -74 -193 -74 -244 0 -371 272 -220
470 27 35 78 70 134 91 50 19 156 11 207 -15z m1346 0 c178 -78 224 -322 87
-460 -61 -61 -118 -85 -203 -86 -57 0 -81 5 -121 26 -27 14 -58 35 -68 46 -18
19 -18 22 10 74 24 46 28 64 28 138 0 75 -4 93 -28 140 l-29 55 38 33 c73 63
190 77 286 34z m-311 -134 c33 -65 36 -168 7 -237 -13 -30 -28 -56 -34 -58 -6
-2 -21 20 -35 49 -33 71 -33 173 0 241 12 26 27 47 32 47 5 0 18 -19 30 -42z"/>
<path d="M1802 2533 c-13 -120 -15 -169 -6 -160 6 5 32 206 34 250 0 9 -4 17
-8 17 -5 0 -14 -48 -20 -107z"/>
<path d="M2280 2633 c0 -5 -7 -64 -15 -132 -13 -112 -13 -143 -1 -130 2 2 9
49 15 104 6 55 14 115 17 133 3 19 1 32 -6 32 -5 0 -10 -3 -10 -7z"/>
<path d="M1897 2554 c3 -21 9 -43 14 -48 4 -5 4 -16 0 -25 -5 -9 -11 -30 -14
-48 -10 -50 17 -31 31 22 12 46 3 96 -24 124 -11 12 -12 8 -7 -25z"/>
<path d="M2620 2585 c1 -6 12 -23 25 -40 l24 -30 -31 -32 c-18 -18 -27 -33
-22 -33 6 0 25 16 44 35 l34 35 -37 38 c-20 20 -37 32 -37 27z"/>
<path d="M1706 2568 c-2 -7 -8 -28 -14 -45 -7 -23 -7 -43 0 -65 6 -18 12 -39
14 -45 2 -7 8 -13 13 -13 7 0 8 13 3 33 -3 17 -7 43 -7 57 0 14 4 40 7 58 5
19 4 32 -3 32 -5 0 -11 -6 -13 -12z"/>
<path d="M2171 2526 l-33 -34 36 -39 c23 -25 36 -33 36 -22 0 9 -9 24 -20 34
-26 24 -25 33 7 67 15 15 22 28 17 28 -6 0 -25 -15 -43 -34z"/>
<path d="M2340 2552 c0 -5 11 -19 25 -32 l25 -24 -32 -33 c-17 -18 -29 -35
-27 -38 3 -2 22 13 43 34 l37 38 -26 32 c-26 30 -45 40 -45 23z"/>
<path d="M2710 2440 c0 -6 29 -10 66 -10 41 0 63 4 59 10 -3 6 -33 10 -66 10
-33 0 -59 -4 -59 -10z"/>
<path d="M3181 2605 c-13 -36 -72 -95 -96 -95 -27 0 -15 -15 27 -34 31 -15 45
-30 62 -65 l21 -47 21 47 c17 35 31 51 63 65 41 19 53 34 27 34 -24 0 -78 52
-96 92 l-16 37 -13 -34z"/>
<path d="M1162 2254 c-26 -18 -30 -75 -6 -94 13 -12 14 -10 3 13 -15 33 -6 55
27 67 20 8 32 7 50 -5 28 -18 30 -28 8 -49 -14 -15 -14 -16 4 -16 15 0 18 7
17 30 -4 60 -56 87 -103 54z"/>
<path d="M3720 2250 c-42 -42 -12 -100 50 -100 43 0 60 18 60 64 0 50 -72 74
-110 36z m75 -12 c42 -19 26 -68 -23 -68 -54 0 -84 46 -44 69 22 14 36 13 67
-1z"/>
<path d="M1450 2068 c0 -20 77 -156 128 -228 231 -326 625 -506 1024 -469 393
37 715 254 908 611 23 43 40 84 37 90 -2 7 -22 -23 -45 -67 -168 -331 -468
-551 -835 -610 -470 -76 -948 172 -1168 608 -38 75 -49 90 -49 65z"/>
<path d="M3654 2005 c-4 -11 -8 -22 -10 -25 -1 -3 10 -5 25 -6 16 -1 43 -8 61
-17 40 -21 37 -21 43 3 3 11 2 18 -3 15 -11 -7 -93 23 -102 38 -5 8 -9 5 -14
-8z"/>
<path d="M1187 1984 c2 -6 12 -10 22 -7 25 7 37 -28 15 -44 -10 -7 -14 -19
-10 -28 5 -13 16 -7 57 32 28 26 47 48 42 50 -4 1 -36 3 -69 5 -45 3 -61 1
-57 -8z m83 -19 c-12 -15 -30 -12 -30 6 0 5 10 9 21 9 18 0 19 -2 9 -15z"/>
<path d="M3567 1811 c-28 -47 4 -101 61 -101 21 0 52 29 52 49 0 7 -9 3 -19
-10 -19 -23 -19 -23 -56 -6 -30 14 -36 22 -33 44 2 19 10 29 28 33 22 5 23 7
7 13 -10 4 -20 7 -21 7 -1 0 -9 -13 -19 -29z"/>
<path d="M1390 1803 c0 -13 -65 -53 -86 -53 -12 0 -11 -8 7 -40 25 -43 27 -45
49 -30 12 8 11 10 -6 10 -26 0 -40 29 -22 42 7 5 30 17 50 27 35 16 37 19 23
37 -8 10 -15 14 -15 7z"/>
<path d="M3432 1613 c-42 -47 -15 -113 47 -113 31 0 61 30 61 60 0 8 -6 4 -13
-10 -18 -35 -63 -34 -90 2 -16 22 -18 30 -8 42 7 8 22 16 33 18 18 3 19 5 7
15 -11 9 -19 6 -37 -14z"/>
<path d="M1475 1575 c-14 -13 -25 -33 -25 -45 0 -28 35 -60 65 -60 57 0 88 83
43 114 -32 22 -55 20 -83 -9z m89 -11 c14 -36 -53 -95 -81 -72 -19 15 -16 39
9 65 25 27 63 30 72 7z"/>
<path d="M3245 1413 c4 -10 12 -39 18 -65 12 -47 20 -57 32 -38 3 6 1 10 -4
10 -17 0 -13 26 5 41 14 11 18 11 28 -2 8 -12 15 -14 28 -6 14 10 8 16 -40 44
-65 37 -77 40 -67 16z m46 -46 c-9 -9 -14 -8 -21 3 -16 24 -11 31 11 19 16 -8
18 -14 10 -22z"/>
<path d="M1686 1399 c-19 -15 -26 -30 -26 -55 0 -29 5 -37 34 -50 32 -16 35
-15 53 3 20 20 20 20 -1 33 -12 7 -18 9 -14 5 4 -4 3 -16 -3 -26 -15 -28 -49
-7 -49 30 0 57 78 84 90 31 4 -19 8 -22 15 -11 6 10 0 21 -19 38 -33 28 -46
29 -80 2z"/>
<path d="M3059 1308 c-8 -7 -12 -12 -10 -11 8 5 50 -71 51 -90 0 -15 3 -16 21
-6 12 6 17 14 12 18 -18 12 -54 81 -48 91 9 14 -8 13 -26 -2z"/>
<path d="M1926 1285 c3 -8 -5 -35 -19 -60 l-26 -45 36 -15 c34 -14 53 -13 53
4 0 5 -11 6 -24 4 -30 -6 -40 9 -20 33 11 14 17 15 20 6 6 -13 24 -7 24 9 0 6
-4 8 -9 4 -13 -8 -22 10 -15 29 8 21 30 20 43 -1 10 -17 10 -17 11 0 0 9 -2
17 -4 17 -2 0 -20 7 -39 15 -32 13 -36 13 -31 0z"/>
<path d="M2896 1231 c-3 -5 1 -11 9 -15 8 -3 15 -1 15 4 0 13 -18 22 -24 11z"/>
<path d="M2842 1218 c-29 -29 0 -118 38 -118 19 0 59 23 65 38 5 13 3 13 -13
-1 -25 -23 -59 -22 -72 2 -15 30 -12 69 8 80 14 9 14 10 2 11 -9 0 -21 -5 -28
-12z"/>
<path d="M2147 1192 c2 -10 -2 -37 -10 -59 -12 -37 -12 -43 0 -47 21 -8 25 -7
18 4 -3 5 -2 18 4 27 9 16 12 14 23 -14 7 -18 18 -33 25 -33 10 0 10 5 1 26
-10 22 -9 27 5 35 9 6 17 21 17 34 0 17 -8 26 -31 34 -45 16 -58 14 -52 -7z
m61 -24 c-2 -14 -11 -24 -24 -26 -18 -3 -21 1 -17 22 7 34 46 37 41 4z"/>
<path d="M2400 1150 c-39 -39 -14 -110 39 -110 35 0 61 28 61 67 0 56 -60 83
-100 43z m68 -2 c7 -7 12 -26 12 -43 0 -59 -50 -77 -69 -25 -19 55 22 103 57
68z"/>
</g>
</svg>
